<mxfile host="65bd71144e">
    <diagram name="第 1 页" id="eEJtGMIXdbM9ThFpS3Nj">
        <mxGraphModel dx="940" dy="714" grid="1" gridSize="10" guides="1" tooltips="1" connect="1" arrows="1" fold="1" page="1" pageScale="1" pageWidth="827" pageHeight="1169" math="0" shadow="0">
            <root>
                <mxCell id="0"/>
                <mxCell id="1" parent="0"/>
                <mxCell id="I--uk0IJnU3XhjnONqk5-1" value="kbar" style="swimlane;fontStyle=1;align=center;verticalAlign=top;childLayout=stackLayout;horizontal=1;startSize=26;horizontalStack=0;resizeParent=1;resizeParentMax=0;resizeLast=0;collapsible=1;marginBottom=0;whiteSpace=wrap;html=1;" parent="1" vertex="1">
                    <mxGeometry x="110" y="250" width="300" height="288" as="geometry"/>
                </mxCell>
                <mxCell id="I--uk0IJnU3XhjnONqk5-2" value="+ field: type&lt;br&gt;+ time: UNIX&lt;div&gt;+ data[]: float&lt;/div&gt;&lt;div&gt;&lt;br&gt;&lt;/div&gt;" style="text;strokeColor=none;fillColor=none;align=left;verticalAlign=top;spacingLeft=4;spacingRight=4;overflow=hidden;rotatable=0;points=[[0,0.5],[1,0.5]];portConstraint=eastwest;whiteSpace=wrap;html=1;" parent="I--uk0IJnU3XhjnONqk5-1" vertex="1">
                    <mxGeometry y="26" width="300" height="154" as="geometry"/>
                </mxCell>
                <mxCell id="I--uk0IJnU3XhjnONqk5-3" value="" style="line;strokeWidth=1;fillColor=none;align=left;verticalAlign=middle;spacingTop=-1;spacingLeft=3;spacingRight=3;rotatable=0;labelPosition=right;points=[];portConstraint=eastwest;strokeColor=inherit;" parent="I--uk0IJnU3XhjnONqk5-1" vertex="1">
                    <mxGeometry y="180" width="300" height="8" as="geometry"/>
                </mxCell>
                <mxCell id="I--uk0IJnU3XhjnONqk5-4" value="+ method(type): type&lt;br&gt;+&amp;nbsp;" style="text;strokeColor=none;fillColor=none;align=left;verticalAlign=top;spacingLeft=4;spacingRight=4;overflow=hidden;rotatable=0;points=[[0,0.5],[1,0.5]];portConstraint=eastwest;whiteSpace=wrap;html=1;" parent="I--uk0IJnU3XhjnONqk5-1" vertex="1">
                    <mxGeometry y="188" width="300" height="100" as="geometry"/>
                </mxCell>
                <mxCell id="I--uk0IJnU3XhjnONqk5-5" value="security" style="swimlane;fontStyle=1;align=center;verticalAlign=top;childLayout=stackLayout;horizontal=1;startSize=26;horizontalStack=0;resizeParent=1;resizeParentMax=0;resizeLast=0;collapsible=1;marginBottom=0;whiteSpace=wrap;html=1;" parent="1" vertex="1">
                    <mxGeometry x="510" y="250" width="290" height="280" as="geometry"/>
                </mxCell>
                <mxCell id="I--uk0IJnU3XhjnONqk5-6" value="+ field: type&lt;div&gt;+ s&lt;span style=&quot;background-color: transparent; color: light-dark(rgb(0, 0, 0), rgb(255, 255, 255));&quot;&gt;ymbol string&lt;/span&gt;&lt;/div&gt;&lt;div&gt;&lt;div&gt;+ start: time&lt;/div&gt;&lt;div&gt;+ end: time&lt;/div&gt;&lt;div&gt;+ kbar[time] data&amp;nbsp;&lt;/div&gt;&lt;/div&gt;" style="text;strokeColor=none;fillColor=none;align=left;verticalAlign=top;spacingLeft=4;spacingRight=4;overflow=hidden;rotatable=0;points=[[0,0.5],[1,0.5]];portConstraint=eastwest;whiteSpace=wrap;html=1;" parent="I--uk0IJnU3XhjnONqk5-5" vertex="1">
                    <mxGeometry y="26" width="290" height="154" as="geometry"/>
                </mxCell>
                <mxCell id="I--uk0IJnU3XhjnONqk5-7" value="" style="line;strokeWidth=1;fillColor=none;align=left;verticalAlign=middle;spacingTop=-1;spacingLeft=3;spacingRight=3;rotatable=0;labelPosition=right;points=[];portConstraint=eastwest;strokeColor=inherit;" parent="I--uk0IJnU3XhjnONqk5-5" vertex="1">
                    <mxGeometry y="180" width="290" height="8" as="geometry"/>
                </mxCell>
                <mxCell id="I--uk0IJnU3XhjnONqk5-8" value="+ method(type): type" style="text;strokeColor=none;fillColor=none;align=left;verticalAlign=top;spacingLeft=4;spacingRight=4;overflow=hidden;rotatable=0;points=[[0,0.5],[1,0.5]];portConstraint=eastwest;whiteSpace=wrap;html=1;" parent="I--uk0IJnU3XhjnONqk5-5" vertex="1">
                    <mxGeometry y="188" width="290" height="92" as="geometry"/>
                </mxCell>
                <mxCell id="I--uk0IJnU3XhjnONqk5-9" value="transaction" style="swimlane;fontStyle=1;align=center;verticalAlign=top;childLayout=stackLayout;horizontal=1;startSize=26;horizontalStack=0;resizeParent=1;resizeParentMax=0;resizeLast=0;collapsible=1;marginBottom=0;whiteSpace=wrap;html=1;" parent="1" vertex="1">
                    <mxGeometry x="110" y="1070" width="300" height="288" as="geometry"/>
                </mxCell>
                <mxCell id="I--uk0IJnU3XhjnONqk5-10" value="+ field: type&lt;br&gt;+ time UNIX&lt;div&gt;+ buy: float&lt;br&gt;+ position: float&lt;/div&gt;&lt;div&gt;+ price: float&lt;/div&gt;&lt;div&gt;+ cash&lt;/div&gt;&lt;div&gt;&lt;br&gt;&lt;/div&gt;&lt;div&gt;&lt;br&gt;&lt;/div&gt;" style="text;strokeColor=none;fillColor=none;align=left;verticalAlign=top;spacingLeft=4;spacingRight=4;overflow=hidden;rotatable=0;points=[[0,0.5],[1,0.5]];portConstraint=eastwest;whiteSpace=wrap;html=1;" parent="I--uk0IJnU3XhjnONqk5-9" vertex="1">
                    <mxGeometry y="26" width="300" height="154" as="geometry"/>
                </mxCell>
                <mxCell id="I--uk0IJnU3XhjnONqk5-11" value="" style="line;strokeWidth=1;fillColor=none;align=left;verticalAlign=middle;spacingTop=-1;spacingLeft=3;spacingRight=3;rotatable=0;labelPosition=right;points=[];portConstraint=eastwest;strokeColor=inherit;" parent="I--uk0IJnU3XhjnONqk5-9" vertex="1">
                    <mxGeometry y="180" width="300" height="8" as="geometry"/>
                </mxCell>
                <mxCell id="I--uk0IJnU3XhjnONqk5-12" value="+ method(type): type&lt;div&gt;&lt;br/&gt;&lt;/div&gt;" style="text;strokeColor=none;fillColor=none;align=left;verticalAlign=top;spacingLeft=4;spacingRight=4;overflow=hidden;rotatable=0;points=[[0,0.5],[1,0.5]];portConstraint=eastwest;whiteSpace=wrap;html=1;" parent="I--uk0IJnU3XhjnONqk5-9" vertex="1">
                    <mxGeometry y="188" width="300" height="100" as="geometry"/>
                </mxCell>
                <mxCell id="I--uk0IJnU3XhjnONqk5-13" value="simuExange" style="swimlane;fontStyle=1;align=center;verticalAlign=top;childLayout=stackLayout;horizontal=1;startSize=26;horizontalStack=0;resizeParent=1;resizeParentMax=0;resizeLast=0;collapsible=1;marginBottom=0;whiteSpace=wrap;html=1;" parent="1" vertex="1">
                    <mxGeometry x="890" y="250" width="280" height="280" as="geometry"/>
                </mxCell>
                <mxCell id="I--uk0IJnU3XhjnONqk5-14" value="+ field: type&lt;div&gt;+&amp;nbsp;&lt;span style=&quot;text-align: center; background-color: transparent; color: light-dark(rgb(0, 0, 0), rgb(255, 255, 255));&quot;&gt;securities[string] security&amp;nbsp;&lt;/span&gt;&lt;/div&gt;" style="text;strokeColor=none;fillColor=none;align=left;verticalAlign=top;spacingLeft=4;spacingRight=4;overflow=hidden;rotatable=0;points=[[0,0.5],[1,0.5]];portConstraint=eastwest;whiteSpace=wrap;html=1;" parent="I--uk0IJnU3XhjnONqk5-13" vertex="1">
                    <mxGeometry y="26" width="280" height="144" as="geometry"/>
                </mxCell>
                <mxCell id="I--uk0IJnU3XhjnONqk5-15" value="" style="line;strokeWidth=1;fillColor=none;align=left;verticalAlign=middle;spacingTop=-1;spacingLeft=3;spacingRight=3;rotatable=0;labelPosition=right;points=[];portConstraint=eastwest;strokeColor=inherit;" parent="I--uk0IJnU3XhjnONqk5-13" vertex="1">
                    <mxGeometry y="170" width="280" height="8" as="geometry"/>
                </mxCell>
                <mxCell id="I--uk0IJnU3XhjnONqk5-16" value="+ method(type): type&lt;div&gt;+ quary(string,start,end) :type&lt;/div&gt;&lt;div&gt;+ quary&lt;span style=&quot;background-color: transparent; color: light-dark(rgb(0, 0, 0), rgb(255, 255, 255));&quot;&gt;(string,time) :type&lt;/span&gt;&lt;/div&gt;&lt;div&gt;&lt;span style=&quot;background-color: transparent; color: light-dark(rgb(0, 0, 0), rgb(255, 255, 255));&quot;&gt;+ init(argument,...)&lt;/span&gt;&lt;/div&gt;" style="text;strokeColor=none;fillColor=none;align=left;verticalAlign=top;spacingLeft=4;spacingRight=4;overflow=hidden;rotatable=0;points=[[0,0.5],[1,0.5]];portConstraint=eastwest;whiteSpace=wrap;html=1;" parent="I--uk0IJnU3XhjnONqk5-13" vertex="1">
                    <mxGeometry y="178" width="280" height="102" as="geometry"/>
                </mxCell>
                <mxCell id="I--uk0IJnU3XhjnONqk5-17" value="record" style="swimlane;fontStyle=1;align=center;verticalAlign=top;childLayout=stackLayout;horizontal=1;startSize=26;horizontalStack=0;resizeParent=1;resizeParentMax=0;resizeLast=0;collapsible=1;marginBottom=0;whiteSpace=wrap;html=1;" parent="1" vertex="1">
                    <mxGeometry x="506" y="1070" width="290" height="290" as="geometry"/>
                </mxCell>
                <mxCell id="I--uk0IJnU3XhjnONqk5-18" value="+ field: type&lt;br&gt;&lt;div&gt;+ start: time&lt;/div&gt;&lt;div&gt;+ end: time&lt;/div&gt;+ initial_capital float&lt;div&gt;+ commission float&lt;/div&gt;&lt;div&gt;+ transactions[] transaction&lt;/div&gt;" style="text;strokeColor=none;fillColor=none;align=left;verticalAlign=top;spacingLeft=4;spacingRight=4;overflow=hidden;rotatable=0;points=[[0,0.5],[1,0.5]];portConstraint=eastwest;whiteSpace=wrap;html=1;" parent="I--uk0IJnU3XhjnONqk5-17" vertex="1">
                    <mxGeometry y="26" width="290" height="154" as="geometry"/>
                </mxCell>
                <mxCell id="I--uk0IJnU3XhjnONqk5-19" value="" style="line;strokeWidth=1;fillColor=none;align=left;verticalAlign=middle;spacingTop=-1;spacingLeft=3;spacingRight=3;rotatable=0;labelPosition=right;points=[];portConstraint=eastwest;strokeColor=inherit;" parent="I--uk0IJnU3XhjnONqk5-17" vertex="1">
                    <mxGeometry y="180" width="290" height="8" as="geometry"/>
                </mxCell>
                <mxCell id="I--uk0IJnU3XhjnONqk5-20" value="+ method(type): type&lt;div&gt;- report() qty_over_time,sharp,Max_draw_down,TV&lt;/div&gt;" style="text;strokeColor=none;fillColor=none;align=left;verticalAlign=top;spacingLeft=4;spacingRight=4;overflow=hidden;rotatable=0;points=[[0,0.5],[1,0.5]];portConstraint=eastwest;whiteSpace=wrap;html=1;" parent="I--uk0IJnU3XhjnONqk5-17" vertex="1">
                    <mxGeometry y="188" width="290" height="102" as="geometry"/>
                </mxCell>
                <mxCell id="I--uk0IJnU3XhjnONqk5-21" value="records" style="swimlane;fontStyle=1;align=center;verticalAlign=top;childLayout=stackLayout;horizontal=1;startSize=26;horizontalStack=0;resizeParent=1;resizeParentMax=0;resizeLast=0;collapsible=1;marginBottom=0;whiteSpace=wrap;html=1;" parent="1" vertex="1">
                    <mxGeometry x="886" y="1070" width="280" height="290" as="geometry"/>
                </mxCell>
                <mxCell id="I--uk0IJnU3XhjnONqk5-22" value="+ field: type&lt;div&gt;+ records[] record&lt;/div&gt;" style="text;strokeColor=none;fillColor=none;align=left;verticalAlign=top;spacingLeft=4;spacingRight=4;overflow=hidden;rotatable=0;points=[[0,0.5],[1,0.5]];portConstraint=eastwest;whiteSpace=wrap;html=1;" parent="I--uk0IJnU3XhjnONqk5-21" vertex="1">
                    <mxGeometry y="26" width="280" height="154" as="geometry"/>
                </mxCell>
                <mxCell id="I--uk0IJnU3XhjnONqk5-23" value="" style="line;strokeWidth=1;fillColor=none;align=left;verticalAlign=middle;spacingTop=-1;spacingLeft=3;spacingRight=3;rotatable=0;labelPosition=right;points=[];portConstraint=eastwest;strokeColor=inherit;" parent="I--uk0IJnU3XhjnONqk5-21" vertex="1">
                    <mxGeometry y="180" width="280" height="8" as="geometry"/>
                </mxCell>
                <mxCell id="I--uk0IJnU3XhjnONqk5-24" value="+ method(type): type&lt;div&gt;- report() qty_over_time,sharp,Max_draw_down,TV&lt;/div&gt;" style="text;strokeColor=none;fillColor=none;align=left;verticalAlign=top;spacingLeft=4;spacingRight=4;overflow=hidden;rotatable=0;points=[[0,0.5],[1,0.5]];portConstraint=eastwest;whiteSpace=wrap;html=1;" parent="I--uk0IJnU3XhjnONqk5-21" vertex="1">
                    <mxGeometry y="188" width="280" height="102" as="geometry"/>
                </mxCell>
                <mxCell id="I--uk0IJnU3XhjnONqk5-25" value="test_platform" style="swimlane;fontStyle=1;align=center;verticalAlign=top;childLayout=stackLayout;horizontal=1;startSize=26;horizontalStack=0;resizeParent=1;resizeParentMax=0;resizeLast=0;collapsible=1;marginBottom=0;whiteSpace=wrap;html=1;" parent="1" vertex="1">
                    <mxGeometry x="890" y="590" width="310" height="388" as="geometry"/>
                </mxCell>
                <mxCell id="I--uk0IJnU3XhjnONqk5-26" value="+ field: type&lt;div&gt;+ Now time&lt;/div&gt;&lt;div&gt;+ initial_captial float&lt;/div&gt;&lt;div&gt;+ positions [string]&lt;/div&gt;&lt;div&gt;+ cash float&lt;/div&gt;&lt;div&gt;+ commission float&lt;/div&gt;&lt;div&gt;&lt;br&gt;&lt;/div&gt;&lt;div&gt;&lt;br&gt;&lt;/div&gt;" style="text;strokeColor=none;fillColor=none;align=left;verticalAlign=top;spacingLeft=4;spacingRight=4;overflow=hidden;rotatable=0;points=[[0,0.5],[1,0.5]];portConstraint=eastwest;whiteSpace=wrap;html=1;" parent="I--uk0IJnU3XhjnONqk5-25" vertex="1">
                    <mxGeometry y="26" width="310" height="154" as="geometry"/>
                </mxCell>
                <mxCell id="I--uk0IJnU3XhjnONqk5-27" value="" style="line;strokeWidth=1;fillColor=none;align=left;verticalAlign=middle;spacingTop=-1;spacingLeft=3;spacingRight=3;rotatable=0;labelPosition=right;points=[];portConstraint=eastwest;strokeColor=inherit;" parent="I--uk0IJnU3XhjnONqk5-25" vertex="1">
                    <mxGeometry y="180" width="310" height="8" as="geometry"/>
                </mxCell>
                <mxCell id="I--uk0IJnU3XhjnONqk5-28" value="+ method(type): type&lt;div&gt;+ b&lt;span style=&quot;background-color: transparent; color: light-dark(rgb(0, 0, 0), rgb(255, 255, 255));&quot;&gt;uy(float)&lt;/span&gt;&lt;/div&gt;&lt;div&gt;&lt;span style=&quot;background-color: transparent; color: light-dark(rgb(0, 0, 0), rgb(255, 255, 255));&quot;&gt;+ next_time()&lt;/span&gt;&lt;/div&gt;&lt;div&gt;&lt;span style=&quot;background-color: transparent; color: light-dark(rgb(0, 0, 0), rgb(255, 255, 255));&quot;&gt;+ init(start,&amp;nbsp;&lt;/span&gt;&lt;span style=&quot;background-color: transparent; color: light-dark(rgb(0, 0, 0), rgb(255, 255, 255));&quot;&gt;commission, [argument,....]&lt;/span&gt;&lt;span style=&quot;background-color: transparent; color: light-dark(rgb(0, 0, 0), rgb(255, 255, 255));&quot;&gt;&amp;nbsp;)&lt;/span&gt;&lt;/div&gt;&lt;div&gt;&lt;span style=&quot;background-color: transparent; color: light-dark(rgb(0, 0, 0), rgb(255, 255, 255));&quot;&gt;+ qty() float&amp;nbsp;&lt;/span&gt;&lt;/div&gt;&lt;div&gt;&lt;span style=&quot;background-color: transparent; color: light-dark(rgb(0, 0, 0), rgb(255, 255, 255));&quot;&gt;+ flatten&lt;/span&gt;&lt;/div&gt;&lt;div&gt;&lt;span style=&quot;background-color: transparent; color: light-dark(rgb(0, 0, 0), rgb(255, 255, 255));&quot;&gt;+ jump_time(time)&lt;/span&gt;&lt;/div&gt;&lt;div&gt;&lt;span style=&quot;background-color: transparent; color: light-dark(rgb(0, 0, 0), rgb(255, 255, 255));&quot;&gt;+ report()&lt;/span&gt;&lt;/div&gt;" style="text;strokeColor=none;fillColor=none;align=left;verticalAlign=top;spacingLeft=4;spacingRight=4;overflow=hidden;rotatable=0;points=[[0,0.5],[1,0.5]];portConstraint=eastwest;whiteSpace=wrap;html=1;" parent="I--uk0IJnU3XhjnONqk5-25" vertex="1">
                    <mxGeometry y="188" width="310" height="200" as="geometry"/>
                </mxCell>
                <mxCell id="I--uk0IJnU3XhjnONqk5-29" style="edgeStyle=orthogonalEdgeStyle;rounded=0;orthogonalLoop=1;jettySize=auto;html=1;" parent="1" source="I--uk0IJnU3XhjnONqk5-2" target="I--uk0IJnU3XhjnONqk5-6" edge="1">
                    <mxGeometry relative="1" as="geometry"/>
                </mxCell>
                <mxCell id="I--uk0IJnU3XhjnONqk5-30" value="part of" style="edgeLabel;html=1;align=center;verticalAlign=middle;resizable=0;points=[];" parent="I--uk0IJnU3XhjnONqk5-29" vertex="1" connectable="0">
                    <mxGeometry relative="1" as="geometry">
                        <mxPoint as="offset"/>
                    </mxGeometry>
                </mxCell>
                <mxCell id="I--uk0IJnU3XhjnONqk5-31" style="edgeStyle=orthogonalEdgeStyle;rounded=0;orthogonalLoop=1;jettySize=auto;html=1;entryX=0;entryY=0.5;entryDx=0;entryDy=0;" parent="1" source="I--uk0IJnU3XhjnONqk5-6" target="I--uk0IJnU3XhjnONqk5-14" edge="1">
                    <mxGeometry relative="1" as="geometry"/>
                </mxCell>
                <mxCell id="I--uk0IJnU3XhjnONqk5-32" value="part of" style="edgeLabel;html=1;align=center;verticalAlign=middle;resizable=0;points=[];" parent="I--uk0IJnU3XhjnONqk5-31" vertex="1" connectable="0">
                    <mxGeometry x="0.1158" y="-3" relative="1" as="geometry">
                        <mxPoint as="offset"/>
                    </mxGeometry>
                </mxCell>
                <mxCell id="I--uk0IJnU3XhjnONqk5-33" style="edgeStyle=orthogonalEdgeStyle;rounded=0;orthogonalLoop=1;jettySize=auto;html=1;entryX=0;entryY=0.5;entryDx=0;entryDy=0;" parent="1" source="I--uk0IJnU3XhjnONqk5-10" target="I--uk0IJnU3XhjnONqk5-18" edge="1">
                    <mxGeometry relative="1" as="geometry"/>
                </mxCell>
                <mxCell id="I--uk0IJnU3XhjnONqk5-34" value="part of" style="edgeLabel;html=1;align=center;verticalAlign=middle;resizable=0;points=[];" parent="I--uk0IJnU3XhjnONqk5-33" vertex="1" connectable="0">
                    <mxGeometry x="0.0208" y="1" relative="1" as="geometry">
                        <mxPoint as="offset"/>
                    </mxGeometry>
                </mxCell>
                <mxCell id="I--uk0IJnU3XhjnONqk5-35" style="edgeStyle=orthogonalEdgeStyle;rounded=0;orthogonalLoop=1;jettySize=auto;html=1;" parent="1" source="I--uk0IJnU3XhjnONqk5-18" target="I--uk0IJnU3XhjnONqk5-22" edge="1">
                    <mxGeometry relative="1" as="geometry"/>
                </mxCell>
                <mxCell id="I--uk0IJnU3XhjnONqk5-36" value="part of" style="edgeLabel;html=1;align=center;verticalAlign=middle;resizable=0;points=[];" parent="I--uk0IJnU3XhjnONqk5-35" vertex="1" connectable="0">
                    <mxGeometry x="0.1333" y="-5" relative="1" as="geometry">
                        <mxPoint as="offset"/>
                    </mxGeometry>
                </mxCell>
                <mxCell id="I--uk0IJnU3XhjnONqk5-39" style="edgeStyle=orthogonalEdgeStyle;rounded=0;orthogonalLoop=1;jettySize=auto;html=1;entryX=0.5;entryY=0;entryDx=0;entryDy=0;" parent="1" source="I--uk0IJnU3XhjnONqk5-26" target="I--uk0IJnU3XhjnONqk5-17" edge="1">
                    <mxGeometry relative="1" as="geometry"/>
                </mxCell>
                <mxCell id="I--uk0IJnU3XhjnONqk5-40" value="generate" style="edgeLabel;html=1;align=center;verticalAlign=middle;resizable=0;points=[];" parent="I--uk0IJnU3XhjnONqk5-39" vertex="1" connectable="0">
                    <mxGeometry x="-0.461" y="2" relative="1" as="geometry">
                        <mxPoint as="offset"/>
                    </mxGeometry>
                </mxCell>
                <mxCell id="I--uk0IJnU3XhjnONqk5-37" style="edgeStyle=orthogonalEdgeStyle;rounded=0;orthogonalLoop=1;jettySize=auto;html=1;entryX=0;entryY=0.5;entryDx=0;entryDy=0;" parent="1" source="I--uk0IJnU3XhjnONqk5-26" target="I--uk0IJnU3XhjnONqk5-10" edge="1">
                    <mxGeometry relative="1" as="geometry">
                        <mxPoint x="96" y="280" as="targetPoint"/>
                        <Array as="points">
                            <mxPoint x="30" y="713"/>
                            <mxPoint x="30" y="1173"/>
                        </Array>
                    </mxGeometry>
                </mxCell>
                <mxCell id="I--uk0IJnU3XhjnONqk5-38" value="generate" style="edgeLabel;html=1;align=center;verticalAlign=middle;resizable=0;points=[];" parent="I--uk0IJnU3XhjnONqk5-37" vertex="1" connectable="0">
                    <mxGeometry x="0.121" y="2" relative="1" as="geometry">
                        <mxPoint as="offset"/>
                    </mxGeometry>
                </mxCell>
                <mxCell id="I--uk0IJnU3XhjnONqk5-41" style="edgeStyle=orthogonalEdgeStyle;rounded=0;orthogonalLoop=1;jettySize=auto;html=1;entryX=0.557;entryY=0.999;entryDx=0;entryDy=0;entryPerimeter=0;" parent="1" source="I--uk0IJnU3XhjnONqk5-25" target="I--uk0IJnU3XhjnONqk5-16" edge="1">
                    <mxGeometry relative="1" as="geometry"/>
                </mxCell>
                <mxCell id="I--uk0IJnU3XhjnONqk5-42" value="operator" style="edgeLabel;html=1;align=center;verticalAlign=middle;resizable=0;points=[];" parent="I--uk0IJnU3XhjnONqk5-41" vertex="1" connectable="0">
                    <mxGeometry x="-0.0706" y="1" relative="1" as="geometry">
                        <mxPoint as="offset"/>
                    </mxGeometry>
                </mxCell>
                <mxCell id="I--uk0IJnU3XhjnONqk5-43" value="&lt;div style=&quot;font-weight: 400; text-align: left;&quot;&gt;position&lt;/div&gt;" style="swimlane;fontStyle=1;align=center;verticalAlign=top;childLayout=stackLayout;horizontal=1;startSize=26;horizontalStack=0;resizeParent=1;resizeParentMax=0;resizeLast=0;collapsible=1;marginBottom=0;whiteSpace=wrap;html=1;" parent="1" vertex="1">
                    <mxGeometry x="1250" y="590" width="170" height="380" as="geometry"/>
                </mxCell>
                <mxCell id="I--uk0IJnU3XhjnONqk5-44" value="+ field: type&lt;br&gt;+ symbol: string&lt;div&gt;+ size: float&lt;/div&gt;&lt;div&gt;&lt;br&gt;&lt;/div&gt;" style="text;strokeColor=none;fillColor=none;align=left;verticalAlign=top;spacingLeft=4;spacingRight=4;overflow=hidden;rotatable=0;points=[[0,0.5],[1,0.5]];portConstraint=eastwest;whiteSpace=wrap;html=1;" parent="I--uk0IJnU3XhjnONqk5-43" vertex="1">
                    <mxGeometry y="26" width="170" height="154" as="geometry"/>
                </mxCell>
                <mxCell id="I--uk0IJnU3XhjnONqk5-45" value="" style="line;strokeWidth=1;fillColor=none;align=left;verticalAlign=middle;spacingTop=-1;spacingLeft=3;spacingRight=3;rotatable=0;labelPosition=right;points=[];portConstraint=eastwest;strokeColor=inherit;" parent="I--uk0IJnU3XhjnONqk5-43" vertex="1">
                    <mxGeometry y="180" width="170" height="8" as="geometry"/>
                </mxCell>
                <mxCell id="I--uk0IJnU3XhjnONqk5-46" value="+ method(type): type&lt;div&gt;+ value(price)&lt;/div&gt;" style="text;strokeColor=none;fillColor=none;align=left;verticalAlign=top;spacingLeft=4;spacingRight=4;overflow=hidden;rotatable=0;points=[[0,0.5],[1,0.5]];portConstraint=eastwest;whiteSpace=wrap;html=1;" parent="I--uk0IJnU3XhjnONqk5-43" vertex="1">
                    <mxGeometry y="188" width="170" height="192" as="geometry"/>
                </mxCell>
                <mxCell id="I--uk0IJnU3XhjnONqk5-47" style="edgeStyle=orthogonalEdgeStyle;rounded=0;orthogonalLoop=1;jettySize=auto;html=1;entryX=1;entryY=0.5;entryDx=0;entryDy=0;" parent="1" source="I--uk0IJnU3XhjnONqk5-44" target="I--uk0IJnU3XhjnONqk5-26" edge="1">
                    <mxGeometry relative="1" as="geometry"/>
                </mxCell>
                <mxCell id="I--uk0IJnU3XhjnONqk5-48" value="part of" style="edgeLabel;html=1;align=center;verticalAlign=middle;resizable=0;points=[];" parent="I--uk0IJnU3XhjnONqk5-47" vertex="1" connectable="0">
                    <mxGeometry x="-0.0621" y="1" relative="1" as="geometry">
                        <mxPoint as="offset"/>
                    </mxGeometry>
                </mxCell>
            </root>
        </mxGraphModel>
    </diagram>
</mxfile>